<?xml version="1.0" encoding="utf-8"?>
<!-- Generator: Adobe Illustrator 16.0.0, SVG Export Plug-In . SVG Version: 6.00 Build 0)  -->
<!DOCTYPE svg PUBLIC "-//W3C//DTD SVG 1.1//EN" "http://www.w3.org/Graphics/SVG/1.1/DTD/svg11.dtd">
<svg version="1.1" xmlns="http://www.w3.org/2000/svg" xmlns:xlink="http://www.w3.org/1999/xlink" x="0px" y="0px" width="144px"
	 height="252px" viewBox="0 0 144 252" enable-background="new 0 0 144 252" xml:space="preserve">
<g id="Layer_1">
	<rect fill="#282731" width="144" height="252"/>
</g>
<g id="Layer_2">
	<rect x="-8.455" y="96.297" fill="#EF3C3A" width="73.422" height="39.927"/>
	<rect x="9.291" y="141.679" fill="#FFFFFF" width="21.836" height="19.963"/>
	<polygon fill="#FFFFFF" points="100.141,130.21 80.661,160.583 50.288,91.582 78.35,60.217 	"/>
	
		<text transform="matrix(-0.3347 0.9423 -0.9423 -0.3347 116.25 113.332)" opacity="0.5" fill="#FFFFFF" font-family="'Khand-Regular'" font-size="104.1683">0</text>
	
		<text transform="matrix(-0.7896 0.6137 -0.6137 -0.7896 0 8.8716)" opacity="0.5" fill="#FFFFFF" font-family="'Khand-Regular'" font-size="60.7479">0</text>
	
		<text transform="matrix(-0.7896 0.6137 -0.6137 -0.7896 2.564 17.2969)" opacity="0.5" fill="#EF3C3A" font-family="'Khand-Regular'" font-size="60.7479">0</text>
	
		<text transform="matrix(-0.4998 0.8661 -0.8661 -0.4998 132.1553 93.5918)" opacity="0.5" fill="#FFFFFF" font-family="'Khand-Regular'" font-size="51.5721">v</text>
	
		<text transform="matrix(-0.9659 0.259 -0.259 -0.9659 71.9175 226.6992)" opacity="0.5" fill="#FFFFFF" font-family="'Khand-Regular'" font-size="51.5721">v</text>
	<polygon opacity="0.5" fill="#FFFFFF" points="106.602,28.704 108.117,55.629 13.432,32.807 64.516,-8.09 	"/>
	<circle fill="#EF3C3A" cx="142.624" cy="57.103" r="38.461"/>
	<circle fill="#EF3C3A" cx="105.443" cy="172.447" r="10.806"/>
	<circle fill="#EF3C3A" cx="17.349" cy="234.025" r="8.058"/>
	<circle opacity="0.8" fill="#EF3C3A" cx="41.159" cy="192.163" r="26.008"/>
	
		<text transform="matrix(-0.7071 -0.7071 0.7071 -0.7071 170.2939 213.0791)" fill="#FFFFFF" font-family="'Khand-Regular'" font-size="123.2395">0</text>
	
		<text transform="matrix(-0.7071 -0.7071 0.7071 -0.7071 162.9678 213.0791)" fill="#EF3C3A" font-family="'Khand-Regular'" font-size="123.2395">0</text>
</g>
</svg>
