<svg xmlns="http://www.w3.org/2000/svg" width="228.166" height="153" viewBox="0 0 228.166 153">
  <path fill="#FFF" d="M0 32.193c6.508-4.188 12.003-7.419 17.613-10.562 2.808-1.554 5.655-3.076 8.69-4.472 3.03-1.348 6.287-2.633 9.687-3.13 1.84-.264 4.509-.416 7.403.727.73.272 1.467.673 2.23 1.122.754.479 1.521 1.05 2.294 1.717l.534.497c.284.248.547.545.824.82a27.416 27.416 0 0 1 1.591 1.837 36.456 36.456 0 0 1 2.922 4.344c1.825 3.154 3.398 6.743 4.775 10.562 2.749 7.66 4.726 16.228 6.293 25.165 1.561 8.951 2.691 18.312 3.591 27.868.899 9.56 1.549 19.311 2.166 29.144.313 4.92.614 9.854 1.017 14.853.207 2.506.431 5.015.78 7.639.182 1.32.382 2.652.728 4.172.197.792.381 1.574.836 2.691.15.334.285.629.476.984.125.217.257.432.396.641l.215.312a9.36 9.36 0 0 0 .763.869c.14.137.243.249.519.462.493.378.973.687 1.592.953a7.004 7.004 0 0 0 2.371.507 7.23 7.23 0 0 0 2.253-.348c.492-.18.979-.412 1.429-.687.262-.157.357-.237.492-.34l.384-.312c.579-.492.754-.74 1.058-1.088l.199-.246.138-.192.27-.39c.197-.283.296-.47.43-.694.509-.88.815-1.575 1.123-2.276l.413-1.008.187-.488c.075-.201.212-.515.297-.809l.491-1.986c.585-2.15 1.25-4.365 1.996-6.582 1.466-4.431 3.085-8.846 4.737-13.187 3.315-8.688 6.797-17.108 10.27-25.134 6.949-16.049 13.881-30.565 20.307-42.439 3.224-5.918 6.33-11.194 9.271-15.477 1.478-2.097 2.91-4.005 4.218-5.402.666-.658 1.121-1.15 1.957-1.794a452.6 452.6 0 0 1 1.09-.882l1.088-.789c2.838-2.042 5.311-3.338 6.984-4.205l1.953-.917c.438-.214.676-.299.676-.299l.978-.404c.637-.284 1.606-.644 2.88-1.1 2.549-.862 6.372-2.077 11.339-2.681 2.474-.309 5.231-.507 8.165-.346 2.928.154 6.055.6 9.098 1.631 6.104 1.996 11.784 6.362 14.118 13.845l.243.685.18.725.373 1.458c.104.475.161.92.254 1.384.033.455.108.915.127 1.368.086 1.816-.092 3.601-.668 5.339-1.101 3.473-3.769 6.866-7.476 9.764-3.679 2.924-8.276 5.349-13.22 7.383-4.959 2.033-10.323 3.658-15.889 4.961-11.131 2.578-23.137 3.984-35.123 3.854-2.988-.045-5.977-.193-8.895-.505-1.456-.16-2.904-.344-4.301-.598a41.855 41.855 0 0 1-2.059-.415l-.505-.113c-3.31 23.201-.896 6.435-1.626 11.614l.037.005.072.009.146.014c.193.002.393.054.593.086 1.595.277 3.583 1.457 5.506 3.177 1.934 1.719 3.803 3.912 5.594 6.274 1.922 2.535 3.766 5.293 5.706 8.174.978 1.445 1.968 2.908 3.118 4.463 1.018 1.389 1.941 2.624 2.878 4.016 3.728 5.446 7.264 11.438 11.299 17.264 2.031 2.916 4.21 5.795 6.621 8.549l1.856 2.039 1.994 1.955c.646.66 1.413 1.246 2.113 1.865l.908.771c1.05.776 2.086 1.555 3.146 2.264 1.101.646 2.184 1.362 3.258 1.894 1.076.52 2.133 1.029 3.162 1.524l.771.366.803.294 1.578.565c2.045.82 4.106 1.22 5.974 1.666.93.248 1.857.281 2.721.416.867.104 1.691.221 2.467.289l4.039.082c5.179-.17 9.588-1.271 13.422-2.623.939-.375 1.861-.74 2.77-1.102.898-.373 1.73-.816 2.569-1.225 1.688-.803 3.203-1.754 4.711-2.664 5.937-3.775 10.72-8.19 16.327-13.508-7.286 2.084-13.398 3.834-19.861 5.684-6.229 1.662-12.537 3.491-20.188 3.736l-2.954-.08c-.562-.059-1.153-.154-1.778-.231-.621-.106-1.297-.103-1.965-.302-1.343-.352-2.829-.602-4.329-1.232-.381-.135-.767-.271-1.157-.412l-.592-.209-.582-.287-2.41-1.166c-.815-.398-1.519-.897-2.312-1.342-.751-.509-1.491-1.074-2.255-1.625l-.678-.584c-.529-.477-1.096-.882-1.605-1.414l-1.568-1.535-1.517-1.67c-2.001-2.289-3.918-4.805-5.776-7.474-3.725-5.366-7.201-11.262-11.261-17.209-.989-1.472-2.128-3.002-3.149-4.396-.9-1.217-1.85-2.605-2.799-4.012-1.908-2.826-3.877-5.785-6.08-8.693-2.069-2.717-4.33-5.438-7.16-7.967-1.42-1.259-2.994-2.47-4.812-3.523-1.811-1.05-3.896-1.947-6.222-2.398-.582-.108-1.161-.216-1.764-.258l-.447-.039-.224-.018-.112-.009c-.758 5.179 1.538-11.604-1.727 11.608l.657.148c.879.204 1.743.366 2.606.524 1.726.312 3.42.524 5.107.709 3.37.358 6.687.521 9.974.568 13.131.129 25.834-1.37 37.977-4.174 6.062-1.426 11.98-3.207 17.658-5.535 5.666-2.345 11.146-5.165 16.057-9.048 2.448-1.936 4.756-4.139 6.729-6.715 1.988-2.546 3.606-5.499 4.633-8.656 1.039-3.154 1.383-6.49 1.214-9.624-.039-.786-.146-1.551-.224-2.32-.131-.745-.248-1.512-.403-2.226l-.521-2.065-.266-1.023-.348-1.009-.701-1.998c-.273-.653-.575-1.296-.865-1.937-.535-1.297-1.324-2.486-1.999-3.696-.387-.581-.796-1.145-1.194-1.709l-.603-.84-.667-.785-1.344-1.539c-.485-.469-.971-.934-1.45-1.397a15.11 15.11 0 0 0-1.498-1.297c-.515-.406-1.021-.819-1.537-1.204-1.077-.69-2.103-1.464-3.205-2.016l-1.62-.875-1.638-.736c-1.079-.513-2.179-.859-3.249-1.247-4.312-1.443-8.441-2.006-12.2-2.205-3.767-.199-7.179.049-10.218.429-6.089.754-10.658 2.209-13.732 3.253-1.533.547-2.699.987-3.472 1.326l-1.177.49s-.285.105-.817.361l-2.366 1.111c-2.043 1.051-5.048 2.621-8.611 5.178l-1.366.994-1.394 1.122c-.897.681-2.071 1.8-3.076 2.837-1.949 2.09-3.605 4.335-5.318 6.756-3.324 4.84-6.576 10.385-9.938 16.542-6.673 12.319-13.712 27.057-20.788 43.372-3.534 8.158-7.073 16.705-10.476 25.608-1.697 4.457-3.365 8.992-4.923 13.692a127.556 127.556 0 0 0-2.205 7.281l-.386 1.547c-.001-.004.012-.039-.018.045l-.139.363-.278.68c-.179.414-.376.83-.482 1.002-.022.035-.063.121-.049.082-.021-.016-.021-.021.229.15l.532.385.519.408.422.301c.529.381 1.074.987 1.365 1.254.082.092.158.188.229.293.071.101.141.23.182.263a.991.991 0 0 1 .202.414c.03.058.048.104.04.181-.005-.005.012-.07.027-.076a.777.777 0 0 1 .188-.302c.034-.017.109-.124.183-.204a2.167 2.167 0 0 1 .498-.401c.115-.092.242-.192.367-.278a5.2 5.2 0 0 1 .793-.457c.643-.366 1.4-.751 2.137-1.005.336-.148.128-.068.186-.1l-.006-.019-.016-.037-.059-.19c-.043-.137-.094-.349-.143-.547-.198-.867-.375-1.959-.523-3.065-.299-2.237-.516-4.626-.712-7.022-.387-4.812-.686-9.724-.998-14.641-.616-9.843-1.271-19.736-2.188-29.502-.92-9.768-2.08-19.414-3.714-28.792-1.652-9.375-3.725-18.495-6.819-27.13-1.56-4.312-3.375-8.507-5.673-12.48-1.151-1.984-2.427-3.911-3.874-5.74a39.279 39.279 0 0 0-2.307-2.657c-.418-.422-.813-.853-1.261-1.254l-.843-.777a31.305 31.305 0 0 0-3.879-2.883c-1.361-.814-2.73-1.53-4.121-2.059-2.766-1.1-5.477-1.537-7.771-1.66-2.301-.106-4.23.063-5.708.312-5.512.902-9.671 3.033-13.159 5.201-3.461 2.23-6.25 4.657-8.716 7.188C7.444 19.943 3.788 25.45 0 32.193z"/>
</svg>